<svg width="24" height="25" viewBox="0 0 24 25" fill="none" xmlns="http://www.w3.org/2000/svg">
<g clip-path="url(#clip0_10_91)">
<path d="M12.0033 8.45683C9.73189 8.45683 7.89975 10.2603 7.89975 12.4963C7.89975 14.7322 9.73189 16.5357 12.0033 16.5357C14.2747 16.5357 16.1069 14.7322 16.1069 12.4963C16.1069 10.2603 14.2747 8.45683 12.0033 8.45683ZM12.0033 15.1225C10.5355 15.1225 9.33546 13.9447 9.33546 12.4963C9.33546 11.0478 10.5319 9.87011 12.0033 9.87011C13.4747 9.87011 14.6712 11.0478 14.6712 12.4963C14.6712 13.9447 13.4712 15.1225 12.0033 15.1225V15.1225ZM17.2319 8.2916C17.2319 8.81543 16.8033 9.23379 16.2747 9.23379C15.7426 9.23379 15.3176 8.81191 15.3176 8.2916C15.3176 7.77129 15.7462 7.34941 16.2747 7.34941C16.8033 7.34941 17.2319 7.77129 17.2319 8.2916ZM19.9497 9.24785C19.889 7.98574 19.5962 6.86777 18.6569 5.94668C17.7212 5.02559 16.5855 4.7373 15.3033 4.67402C13.9819 4.6002 10.0212 4.6002 8.69975 4.67402C7.42118 4.73379 6.28546 5.02207 5.34618 5.94316C4.40689 6.86426 4.11761 7.98222 4.05332 9.24433C3.97832 10.5451 3.97832 14.4439 4.05332 15.7447C4.11403 17.0068 4.40689 18.1248 5.34618 19.0459C6.28546 19.967 7.4176 20.2553 8.69975 20.3185C10.0212 20.3924 13.9819 20.3924 15.3033 20.3185C16.5855 20.2588 17.7212 19.9705 18.6569 19.0459C19.5926 18.1248 19.8855 17.0068 19.9497 15.7447C20.0247 14.4439 20.0247 10.5486 19.9497 9.24785V9.24785ZM18.2426 17.1404C17.964 17.8295 17.4247 18.3603 16.7212 18.6381C15.6676 19.0494 13.1676 18.9545 12.0033 18.9545C10.839 18.9545 8.33546 19.0459 7.28546 18.6381C6.58546 18.3639 6.04618 17.833 5.76403 17.1404C5.34618 16.1033 5.44261 13.6424 5.44261 12.4963C5.44261 11.3502 5.34975 8.88574 5.76403 7.85215C6.0426 7.16308 6.58189 6.63223 7.28546 6.35449C8.33903 5.94316 10.839 6.03809 12.0033 6.03809C13.1676 6.03809 15.6712 5.94668 16.7212 6.35449C17.4212 6.62871 17.9605 7.15957 18.2426 7.85215C18.6605 8.88926 18.564 11.3502 18.564 12.4963C18.564 13.6424 18.6605 16.1068 18.2426 17.1404Z" fill="#363636"/>
</g>
<defs>
<clipPath id="clip0_10_91">
<rect width="16" height="18" fill="white" transform="translate(4 3.5)"/>
</clipPath>
</defs>
</svg>
