<svg width="24" height="25" viewBox="0 0 24 25" fill="none" xmlns="http://www.w3.org/2000/svg">
<g clip-path="url(#clip0_10_95)">
<path d="M7.63269 19.5V9.37953H4.20239V19.5H7.63269ZM5.91798 7.99692C7.11419 7.99692 7.85877 7.21978 7.85877 6.24862C7.83648 5.25556 7.11423 4.5 5.94068 4.5C4.76731 4.5 4 5.25558 4 6.24862C4 7.21983 4.7444 7.99692 5.89559 7.99692H5.91787H5.91798ZM9.53135 19.5H12.9617V13.8482C12.9617 13.5458 12.9839 13.2436 13.0745 13.0274C13.3225 12.423 13.8869 11.7971 14.8345 11.7971C16.0758 11.7971 16.5724 12.7252 16.5724 14.0857V19.4999H20.0025V13.6969C20.0025 10.5883 18.3101 9.14193 16.0532 9.14193C14.2027 9.14193 13.3902 10.1563 12.9388 10.8471H12.9617V9.37932H9.53143C9.57644 10.329 9.53143 19.4998 9.53143 19.4998L9.53135 19.5Z" fill="#363636"/>
</g>
<defs>
<clipPath id="clip0_10_95">
<rect width="16" height="15" fill="white" transform="translate(4 4.5)"/>
</clipPath>
</defs>
</svg>
