<svg width="24" height="25" viewBox="0 0 24 25" fill="none" xmlns="http://www.w3.org/2000/svg">
<g clip-path="url(#clip0_10_99)">
<path d="M21 7.2049C20.326 7.48937 19.611 7.6761 18.879 7.75887C19.6415 7.32346 20.227 6.63398 20.5027 5.81247C19.7778 6.22228 18.9847 6.51101 18.1577 6.6662C17.484 5.98248 16.5243 5.55518 15.4621 5.55518C13.4226 5.55518 11.7691 7.13041 11.7691 9.07326C11.7691 9.34904 11.8018 9.61752 11.8647 9.87508C8.79558 9.72831 6.07448 8.32771 4.25304 6.19918C3.93523 6.71878 3.75312 7.32319 3.75312 7.96786C3.75312 9.18848 4.40513 10.2653 5.39597 10.8962C4.80953 10.8787 4.23599 10.7278 3.72323 10.4561C3.72302 10.4708 3.72302 10.4856 3.72302 10.5004C3.72302 12.205 4.99596 13.6269 6.68529 13.9501C6.14148 14.091 5.57107 14.1117 5.01762 14.0104C5.48752 15.4082 6.85137 16.4253 8.46729 16.4537C7.20342 17.3973 5.61105 17.9598 3.88095 17.9598C3.58282 17.9598 3.28891 17.9431 3 17.9106C4.63427 18.9088 6.57539 19.4913 8.66086 19.4913C15.4535 19.4913 19.1679 14.1303 19.1679 9.48127C19.1679 9.32868 19.1644 9.17695 19.1573 9.0261C19.8802 8.52819 20.5042 7.91147 21 7.2049" fill="#363636"/>
</g>
<defs>
<clipPath id="clip0_10_99">
<rect width="18" height="14" fill="white" transform="translate(3 5.5)"/>
</clipPath>
</defs>
</svg>
